<?xml version="1.0" encoding="utf-8"?>
<!-- Generator: Adobe Illustrator 15.0.2, SVG Export Plug-In . SVG Version: 6.00 Build 0)  -->
<!DOCTYPE svg PUBLIC "-//W3C//DTD SVG 1.1//EN" "http://www.w3.org/Graphics/SVG/1.1/DTD/svg11.dtd">
<svg version="1.1" id="Layer_1" xmlns="http://www.w3.org/2000/svg" xmlns:xlink="http://www.w3.org/1999/xlink" x="0px" y="0px"
	 width="100.043px" height="99.854px" viewBox="0 0 100.043 99.854" enable-background="new 0 0 100.043 99.854"
	 xml:space="preserve">
<path fill="#C12F2F" d="M60.129,99.85c-0.061-0.327-0.119-0.655-0.178-0.981c-1.371-0.094-2.743-0.188-4.113-0.278
	c-0.06-0.327-0.117-0.656-0.178-0.982c-0.656,0.116-1.328,2.126-1.983,2.245c-0.834-0.866-1.604,0.514-2.437-0.354
	c-0.657,0.117-1.313,0.234-1.969,0.354c-0.444-0.599-0.893-1.194-1.338-1.792c-0.656,0.117-1.777,1.671-2.434,1.789
	c-0.059-0.328-0.117-0.656-0.177-0.983c-0.655,0.118-1.313,0.235-1.969,0.354c-0.06-0.326-0.315-2.926-0.375-3.252
	c-0.656,0.117-1.125,0.214-1.782,0.333c-0.059-0.327,0.049-2.088-0.01-2.416c-0.657,0.119-1.595,0.589-2.25,0.708
	c-0.445-0.6-0.348-3.396-0.795-3.996c-0.655,0.118-1.313,0.235-1.969,0.354c-0.445-0.598-0.892-1.192-1.336-1.791
	c-0.656,0.118-1.313,0.234-1.97,0.354c-0.444-0.598-0.894-1.192-1.338-1.791c-0.656,0.117-1.312,0.234-1.97,0.354
	c-0.444-0.599-0.891-1.193-1.338-1.791c-0.655,0.117-1.312,0.233-1.967,0.354c-0.06-0.328-0.119-0.655-0.178-0.983
	c-0.656,0.118-1.313,0.234-1.969,0.354c-0.059-0.328-0.117-0.656-0.178-0.983c-0.655,0.117-1.312,0.234-1.969,0.354
	c-0.059-0.328-0.117-0.656-0.176-0.984c-0.656,0.118-1.313,0.235-1.969,0.354c-2.768-2.213-5.536-4.426-8.305-6.638
	c-0.656,0.117-1.313,0.235-1.969,0.354c-0.445-0.598-0.892-1.194-1.338-1.791c-0.326,0.059-0.656,0.117-0.984,0.177
	c-0.117-0.656-0.233-1.313-0.354-1.97c-2.264-1.286-4.525-2.574-6.789-3.86c-0.34-3.813,0.377-7.465,2.348-9.564
	c0.656-0.117,1.313-0.234,1.969-0.354c0.209-0.715,0.421-1.432,0.632-2.145c0.327-0.062,0.655-0.118,0.983-0.178
	c-0.117-0.656-0.234-1.313-0.354-1.97c0.866-0.833,1.732-1.667,2.6-2.499c-0.117-0.655-0.236-1.313-0.354-1.969
	c0.865-0.833,1.732-1.666,2.6-2.498c-0.119-0.656-0.236-1.313-0.354-1.969c0.597-0.446,1.193-0.892,1.791-1.337
	c-0.059-0.328-0.117-0.656-0.178-0.984c0.656-0.118,1.313-0.234,1.97-0.353c0.21-0.715,0.421-1.433,0.631-2.146
	c0.926-0.504,1.851-1.009,2.776-1.514c0.959-2.204,1.918-4.408,2.877-6.612c0.656-0.118,1.312-0.235,1.968-0.353
	c-0.06-0.329-0.117-0.656-0.177-0.985c0.656-0.118,1.313-0.234,1.969-0.354c-0.059-0.328-0.118-0.656-0.178-0.984
	c0.984-0.177,1.97-0.354,2.953-0.53c-0.059-0.328-0.117-0.655-0.177-0.983c0.657-0.118,1.313-0.236,1.97-0.354
	c-0.061-0.329-0.119-0.656-0.178-0.983c0.656-0.118,1.313-0.236,1.969-0.354c-0.059-0.328-0.117-0.656-0.177-0.982
	c0.656-0.118,1.312-0.236,1.97-0.354c-0.061-0.328-0.119-0.656-0.178-0.984c0.656-0.117,1.313-0.234,1.969-0.353
	c2.095-3.423,4.189-6.848,6.283-10.272c0.656-0.116,1.313-0.234,1.969-0.353c-0.059-0.328-0.117-0.656-0.176-0.984
	c1.135-1.22,2.271-2.439,3.406-3.66c0.748-1.488,1.497-2.979,2.245-4.467c0.655-0.118,1.313-0.234,1.97-0.354
	c-0.06-0.328-0.117-0.656-0.177-0.984c1.851-1.009,3.7-2.019,5.552-3.029c-0.06-0.327-0.117-0.655-0.178-0.983
	c3.6-2.103,15.738-1.26,17.264-0.05c0.328-0.061,0.656-0.118,0.984-0.178c0.059,0.328,0.117,0.656,0.177,0.984
	c-1.641,0.294-3.28,0.589-4.922,0.884c0.06,0.328,0.117,0.656,0.177,0.984c-3.148,1.616-6.533,0.577-8.682,2.575
	c-1.557,2.649-3.112,5.3-4.669,7.949c-0.925,0.505-1.851,1.01-2.774,1.515c-0.152,1.043-0.304,2.086-0.455,3.13
	c-1.463,1.278-2.929,2.557-4.392,3.836c-0.749,1.488-1.497,2.979-2.246,4.467c-1.969,0.354-3.937,0.708-5.905,1.061
	c-0.422,1.43-0.841,2.86-1.263,4.291c-0.655,0.117-1.312,0.235-1.968,0.354c-0.749,1.489-1.497,2.979-2.246,4.467
	c-0.657,0.118-1.313,0.235-1.969,0.354c-0.211,0.714-0.42,1.431-0.631,2.145c-0.926,0.505-1.852,1.011-2.776,1.516
	c0.06,0.329,0.118,0.655,0.178,0.983c-1.456,1.709-1.957,2.722-4.392,3.836c-0.641,6.844-7.842,8.503-8.354,15.725
	c-1.165,1.823-0.051,6,0.606,9.034c0.326-0.06,0.656-0.118,0.982-0.177c0.061,0.327,0.118,0.655,0.178,0.983
	s0.117,0.655,0.178,0.982c1.102,0.479,2.203,0.959,3.306,1.438c0.06,0.328,0.118,0.656,0.177,0.983
	c0.656-0.118,1.313-0.235,1.969-0.354c1.221,1.135,2.439,2.271,3.66,3.407c0.656-0.118,1.312-0.235,1.969-0.354
	c0.445,0.6,0.892,1.194,1.337,1.792c0.657-0.117,1.313-0.235,1.97-0.354c0.833,0.865,1.665,1.731,2.498,2.599
	c0.656-0.117,1.313-0.232,1.969-0.353c0.445,0.598,0.893,1.191,1.338,1.791c0.656-0.117,1.313-0.234,1.969-0.354
	c0.445,0.601,0.893,1.195,1.338,1.793c0.656-0.118,1.313-0.233,1.969-0.354c0.059,0.328,0.117,0.656,0.178,0.983
	c1.371,0.093,2.741,0.187,4.112,0.277c0.06,0.328,0.118,0.656,0.177,0.984c1.313-0.235,2.625-0.473,3.938-0.707
	c0.06,0.328,0.116,0.655,0.177,0.982c1.37,0.094,2.742,0.186,4.113,0.276c0.059,0.328,0.117,0.656,0.177,0.984
	c2.174,0.422,6.931-0.466,8.856-1.591c-0.059-0.327-0.116-0.655-0.176-0.983c1.908-0.683,3.818-1.362,5.729-2.045
	c0.061,0.328,0.117,0.655,0.177,0.983c0.656-0.116,1.313-0.235,1.97-0.354c0.06,0.328,0.117,0.656,0.178,0.982
	c2.998,0.719,2.861-0.754,5.272,1.085c2.298-0.411,4.595-0.823,6.892-1.235c1.558-2.649,3.113-5.301,4.668-7.949
	c0.291-2.075-1.514-2.776-1.514-2.776c-0.354-1.969-0.707-3.938-1.062-5.904c0.327-0.061,0.655-0.117,0.983-0.178
	c-0.412-2.297-0.826-4.594-1.236-6.891c0.865-0.833,1.732-1.665,2.6-2.498c0.799-2.938-2.195-8.448-2.751-9.666
	c-2.071-4.558,0.94-8.173-0.782-10.02c-0.117-0.656-0.234-1.313-0.354-1.97c-3.728-0.008-7.453-0.016-11.181-0.023
	c-0.061-0.328-1.045-0.152-0.983,0.176c-2.511,1.338-3.873,2.097-5.376,4.013c-0.21,0.715-0.42,1.431-0.633,2.146
	c-0.653,0.118-1.313,0.234-1.969,0.353c0.062,0.328,0.119,0.656,0.178,0.984c-2.297,0.412-4.594,0.825-6.891,1.237
	c0.062,0.327,0.118,0.655,0.178,0.984c-0.983,0.176-1.969,0.354-2.951,0.53c-0.211,0.715-0.422,1.43-0.633,2.145
	c-0.983,0.178-1.969,0.354-2.951,0.53c0.059,0.329,0.115,0.656,0.177,0.984c-1.254,0.563-2.507,1.128-3.761,1.69
	c0.06,0.329,0.117,0.657,0.177,0.985c-2.894,0.858-5.787,1.717-8.683,2.574c0.06,0.328,0.119,0.658,0.178,0.983
	c-0.328,0.06-0.656,0.118-0.984,0.179c0.473,2.623,0.942,5.248,1.414,7.873c0.715,0.211,1.43,0.422,2.145,0.631
	c0.062,0.328,0.119,0.658,0.179,0.982c0.655-0.115,1.312-0.232,1.968-0.353c2.381,1.94,4.762,3.887,7.145,5.828
	c3.994-0.377,7.992-0.756,11.988-1.136c1.283-2.323,5.582-5.817,7.797-7.495c0.078-4.396,1.215-8.064,0.832-12.343
	c-2.951,0.53-5.904,1.062-8.856,1.591c-0.06-0.328-0.118-0.657-0.179-0.984c2.629-1.189,3.42-2.459,4.215-4.82
	c4.676-0.349,8.914,3.179,10.449,7.269c1.617,1.55,0.521,7.133,0.959,11.004c-0.926,0.504-1.852,1.01-2.775,1.515
	c-0.21,0.715-0.42,1.429-0.631,2.146c-0.656,0.115-1.313,0.233-1.969,0.354c0.06,0.327,0.117,0.656,0.178,0.984
	c-1.91,0.682-3.82,1.361-5.729,2.043c0.059,0.328,0.116,0.656,0.176,0.983c-5.576,1.002-11.154,2.003-16.731,3.005
	c-0.446-0.599-0.894-1.193-1.337-1.793c-0.657,0.118-1.313,0.236-1.969,0.354c-0.059-0.328-0.117-0.656-0.176-0.984
	c-0.658,0.118-1.313,0.236-1.97,0.354c-0.06-0.327-0.118-0.655-0.177-0.983c-0.657,0.118-1.313,0.235-1.969,0.354
	c-0.06-0.328-0.117-0.656-0.178-0.984c-0.656,0.118-1.313,0.236-1.969,0.354c-0.445-0.599-0.893-1.193-1.337-1.791
	c-3.826-2.484-7.78-4.338-9.817-9.414c-2.443-1.858-1.682-6.252-1.591-8.857c1.91-0.682,3.819-1.363,5.729-2.045
	c-0.059-0.328-0.118-0.655-0.178-0.983c4.535-1.152,9.069-2.306,13.604-3.458c0.209-0.715,0.42-1.431,0.631-2.146
	c0.656-0.117,1.312-0.235,1.968-0.353c1.021-1.875,2.036-3.753,3.055-5.629c0.654-0.117,1.313-0.235,1.97-0.354
	c-0.062-0.328-0.118-0.656-0.179-0.984c0.984-0.177,1.971-0.353,2.953-0.529c-0.06-0.328-0.117-0.656-0.178-0.984
	c0.985-0.177,1.971-0.354,2.953-0.53c-0.059-0.328-0.117-0.655-0.177-0.984c1.851-1.01,3.702-2.02,5.553-3.028
	c-0.06-0.329-0.118-0.657-0.177-0.985c0.656-0.118,1.313-0.234,1.969-0.353c-0.061-0.328-0.117-0.656-0.177-0.984
	c0.655-0.118,1.313-0.235,1.969-0.354c-0.06-0.328-0.118-0.656-0.177-0.984c0.654-0.118,1.313-0.236,1.968-0.354
	c-0.06-0.328-0.116-0.656-0.176-0.984c0.78-0.595,8.875-4.451,10.474-3.912c0.059,0.328,0.117,0.656,0.178,0.984
	c1.641-0.294,3.279-0.588,4.92-0.883c0.447,0.597,0.894,1.194,1.34,1.792c0.654-0.118,1.313-0.236,1.968-0.354
	c0.06,0.328,0.118,0.656,0.179,0.984c1.487,0.749,2.979,1.497,4.467,2.246c0.117,0.655,0.234,1.313,0.354,1.968
	c0.716,0.211,1.432,0.42,2.146,0.631c0.176,0.984,0.354,1.969,0.528,2.953c0.328-0.06,0.656-0.118,0.984-0.177
	c0.522,4.86-0.433,6.586-2.349,9.564c-0.598,0.446-1.193,0.893-1.791,1.337c0.117,0.657,0.234,1.313,0.354,1.97
	c-0.599,0.445-1.194,0.892-1.792,1.338c0.118,0.656,0.234,1.312,0.354,1.968c-0.328,0.059-0.656,0.118-0.983,0.177
	c-0.181,2.847,4.888,6.365,4.089,11.458c-0.328,0.06-0.656,0.117-0.982,0.177c0.116,0.656,0.233,1.313,0.354,1.971
	c-0.328,0.059-0.656,0.115-0.984,0.176c0.202,3.012,0.404,6.022,0.606,9.035c-0.599,0.444-1.195,0.893-1.792,1.338
	c0.084,2.354,0.168,4.711,0.253,7.065c-0.328,0.06-0.656,0.117-0.983,0.177c0.116,0.656,0.234,1.313,0.354,1.969
	c-0.329,0.061-0.656,0.119-0.985,0.178c0.791,6.292-1.893,6.437-1.893,6.437s-8.951,2.961-13.428,4.441
	c-0.684,0.479-2.6,2.499-2.6,2.499l-2.775,1.515C72.924,97.553,64.393,99.086,60.129,99.85z"/>
</svg>
