<?xml version="1.0" encoding="utf-8"?>
<!-- Generator: Adobe Illustrator 22.1.0, SVG Export Plug-In . SVG Version: 6.00 Build 0)  -->
<svg version="1.1" id="Layer_1" xmlns="http://www.w3.org/2000/svg" xmlns:xlink="http://www.w3.org/1999/xlink" x="0px" y="0px"
	 viewBox="0 0 60 60" style="enable-background:new 0 0 60 60;" xml:space="preserve">
<style type="text/css">
	.st0{fill:#ED184B;}
</style>
<path class="st0" d="M59.9,30.8c-0.1-1.8-0.4-3.5-0.9-5.3c-0.5-1.8-1.1-3.4-1.8-4.9c-1.5-3.1-3.6-6-6.1-8.2L47.3,9l2.7,4.3
	c1.7,2.7,2.8,5.6,3.5,8.5c0.3,1.5,0.5,3,0.6,4.4c0.1,1.4,0,2.9-0.2,4.4c-0.1,0.5-0.1,1-0.1,1.4c0,0.3,0,0.5,0,0.8
	c-0.1,0.7-0.2,1.4-0.3,2.1c-0.3,1.4-0.7,2.8-1.2,4.1c-1.1,2.7-2.6,5.1-4.6,7.2c-2,2.1-4.3,3.8-6.8,5.1c-2.6,1.3-5.3,2.1-8.2,2.4
	c-2.9,0.3-5.7,0.1-8.5-0.6c-2.8-0.7-5.4-1.9-7.7-3.6c-2.3-1.7-4.4-3.7-6-6.1c-1.6-2.4-2.8-5-3.4-7.8c-0.6-2.8-0.8-5.7-0.4-8.5
	c0.4-2.9,1.2-5.6,2.6-8.1c1.4-2.5,3.1-4.8,5.3-6.7c1.1-0.9,2.2-1.8,3.5-2.5c0.3-0.2,0.6-0.4,0.9-0.5c0.3-0.2,0.6-0.3,0.9-0.5
	c0.2-0.1,0.4-0.2,0.6-0.3l0.4-0.2c0.4-0.1,0.7-0.3,1.1-0.5c1.3-0.6,2.6-1.2,4-1.6C26.5,6,27.2,5.9,28,5.7c0.7-0.1,1.5-0.3,2.2-0.4
	c3-0.4,6.1-0.2,9.2,0.5L44.6,7l-4.6-2.6c-2.9-1.6-6.3-2.7-9.7-3c-1.7-0.2-3.5-0.2-5.3-0.1c-1.8,0.1-3.5,0.4-5.3,0.9
	c-0.5,0.1-0.9,0.3-1.3,0.5c-0.4,0.2-0.7,0.4-1.1,0.5l-0.5,0.3c-0.3,0.1-0.5,0.3-0.8,0.4c-0.4,0.2-0.8,0.4-1.2,0.7
	c-1.5,0.9-3,2-4.3,3.2c-2.7,2.4-5,5.2-6.6,8.4C2.1,19.3,1,22.8,0.5,26.3C0,29.9,0.2,33.5,1,37c0.8,3.5,2.3,6.8,4.3,9.8
	c2,3,4.5,5.6,7.5,7.7c3,2.1,6.2,3.6,9.7,4.5c2.5,0.6,5,1,7.6,1c1,0,2.1-0.1,3.1-0.2c3.6-0.4,7.1-1.4,10.3-3c3.2-1.6,6.1-3.8,8.5-6.4
	c2.5-2.7,4.4-5.7,5.7-9c0.7-1.7,1.2-3.4,1.6-5.1c0.2-0.8,0.3-1.6,0.4-2.4l0-0.2C59.8,32.8,60,31.8,59.9,30.8z"/>
</svg>
